<?xml version="1.0" encoding="UTF-8" standalone="no"?>
<svg
   width="32px"
   height="32px"
   viewBox="0 0 32 32"
   id="icon"
   version="1.1"
   sodipodi:docname="user-avataracesso.svg"
   inkscape:version="1.1.1 (3bf5ae0d25, 2021-09-20)"
   xmlns:inkscape="http://www.inkscape.org/namespaces/inkscape"
   xmlns:sodipodi="http://sodipodi.sourceforge.net/DTD/sodipodi-0.dtd"
   xmlns="http://www.w3.org/2000/svg"
   xmlns:svg="http://www.w3.org/2000/svg">
  <sodipodi:namedview
     id="namedview12"
     pagecolor="#ffffff"
     bordercolor="#666666"
     borderopacity="1.0"
     inkscape:pageshadow="2"
     inkscape:pageopacity="0.0"
     inkscape:pagecheckerboard="0"
     showgrid="false"
     inkscape:zoom="25.21875"
     inkscape:cx="16"
     inkscape:cy="16"
     inkscape:window-width="1920"
     inkscape:window-height="999"
     inkscape:window-x="0"
     inkscape:window-y="0"
     inkscape:window-maximized="1"
     inkscape:current-layer="icon" />
  <defs
     id="defs4">
    <style
       id="style2">
      .cls-1 {
        fill: none;
      }
    </style>
  </defs>
  <path
     d="M16,8a5,5,0,1,0,5,5A5,5,0,0,0,16,8Zm0,8a3,3,0,1,1,3-3A3.0034,3.0034,0,0,1,16,16Z"
     id="path6" />
  <path
     d="M16,2A14,14,0,1,0,30,16,14.0158,14.0158,0,0,0,16,2ZM10,26.3765V25a3.0033,3.0033,0,0,1,3-3h6a3.0033,3.0033,0,0,1,3,3v1.3765a11.8989,11.8989,0,0,1-12,0Zm13.9925-1.4507A5.0016,5.0016,0,0,0,19,20H13a5.0016,5.0016,0,0,0-4.9925,4.9258,12,12,0,1,1,15.985,0Z"
     id="path8" />
  <rect
     id="_Transparent_Rectangle_"
     data-name="&lt;Transparent Rectangle&gt;"
     class="cls-1"
     width="32"
     height="32" />
  <path
     style="fill:#000000;stroke-width:0.039653"
     d="m 15.702602,15.953321 c -0.696067,-0.06367 -1.27396,-0.345607 -1.805957,-0.88108 -0.299703,-0.301662 -0.389114,-0.422854 -0.544223,-0.737669 -0.23864,-0.48435 -0.31727,-0.819927 -0.3159,-1.348203 0.0039,-1.506535 1.101474,-2.73771 2.620968,-2.940017 0.986247,-0.1313093 2.085284,0.330517 2.684943,1.128242 0.42148,0.560691 0.618574,1.134926 0.621855,1.811775 0.0025,0.52624 -0.07556,0.858765 -0.31671,1.348203 -0.156192,0.317012 -0.242429,0.433368 -0.544223,0.734295 -0.203306,0.202722 -0.470248,0.422122 -0.616366,0.506591 -0.510247,0.294969 -1.167959,0.434247 -1.784387,0.377863 z"
     id="path922" />
  <path
     style="fill:#000000;stroke-width:0.039653"
     d="m 15.623296,15.923604 c -0.565204,-0.07922 -1.062489,-0.306982 -1.515962,-0.69433 -0.477857,-0.408177 -0.75792,-0.837414 -0.946889,-1.451242 -0.118164,-0.383834 -0.127078,-1.067287 -0.01938,-1.485591 0.217688,-0.845474 0.809153,-1.568687 1.590124,-1.944319 0.459395,-0.22096 0.724748,-0.27654 1.30846,-0.274067 0.456469,0.0019 0.55181,0.01472 0.832714,0.111673 0.823246,0.28414 1.405722,0.79117 1.782444,1.551571 0.199916,0.403523 0.274287,0.751865 0.275142,1.288723 8.05e-4,0.505668 -0.07725,0.839349 -0.301119,1.287327 -0.256416,0.513099 -0.796505,1.053807 -1.314905,1.316413 -0.482005,0.244168 -1.179771,0.365444 -1.690633,0.293842 z"
     id="path961" />
  <path
     style="fill:#000000;stroke-width:0.039653"
     d="m 15.590037,15.919797 c -0.532126,-0.07351 -1.033969,-0.307223 -1.482703,-0.690523 -0.477857,-0.408177 -0.75792,-0.837414 -0.946889,-1.451242 -0.115962,-0.376681 -0.125816,-1.061747 -0.02135,-1.484495 0.204563,-0.827842 0.812165,-1.57028 1.592102,-1.945415 0.459395,-0.22096 0.724748,-0.27654 1.30846,-0.274067 0.456469,0.0019 0.55181,0.01472 0.832714,0.111673 0.642171,0.221643 1.136322,0.577387 1.496309,1.077209 0.668948,0.928795 0.758849,2.057235 0.245207,3.077852 -0.252838,0.502397 -0.796287,1.037951 -1.319468,1.300303 -0.477058,0.239223 -1.169952,0.352527 -1.704378,0.278705 z"
     id="path1000" />
  <path
     style="fill:#000000;stroke-width:0.039653"
     d="m 15.590037,15.919797 c -1.123332,-0.155171 -2.076785,-0.99576 -2.429686,-2.142075 -0.115865,-0.37636 -0.12568,-1.061606 -0.02126,-1.484185 0.241958,-0.979174 0.97531,-1.756873 1.988542,-2.108791 0.288256,-0.100118 0.36792,-0.11018 0.872367,-0.11018 0.504724,0 0.583953,0.01002 0.872367,0.110326 0.653616,0.227317 1.148584,0.584947 1.50537,1.087678 0.660478,0.93065 0.746888,2.053365 0.236146,3.068219 -0.250632,0.498012 -0.795097,1.037225 -1.311591,1.29894 -0.468877,0.237586 -1.178966,0.353733 -1.712255,0.280068 z"
     id="path1039" />
  <path
     style="fill:#000000;stroke-width:0.039653"
     d="m 15.286245,17.92494 c -1.626768,-0.255718 -3.010034,-1.256623 -3.741816,-2.707507 -0.159886,-0.317 -0.339346,-0.839405 -0.425884,-1.239738 -0.100636,-0.465554 -0.103275,-1.475795 -0.005,-1.930772 0.335569,-1.554249 1.276121,-2.7867822 2.657776,-3.4828461 1.426413,-0.7186129 3.031031,-0.7186129 4.457444,0 1.763406,0.8883864 2.830912,2.7067721 2.734405,4.6577731 -0.05431,1.097863 -0.412717,2.039701 -1.109306,2.915058 -1.061572,1.334007 -2.893587,2.051172 -4.567576,1.788032 z m 1.665428,-2.058909 c 0.46751,-0.159947 0.828725,-0.389151 1.189591,-0.754837 0.584655,-0.592464 0.859617,-1.257271 0.862422,-2.085172 0.0019,-0.5656 -0.07115,-0.8906 -0.307579,-1.368029 -0.38312,-0.773665 -1.064151,-1.334352 -1.911314,-1.573571 -0.436268,-0.1231919 -1.13231,-0.1224877 -1.577854,0.0016 -1.438328,0.400574 -2.380321,1.797713 -2.201831,3.265699 0.151485,1.245888 1.016529,2.238696 2.241484,2.572547 0.225696,0.06151 0.381323,0.07328 0.832714,0.06297 0.480875,-0.01098 0.597581,-0.02719 0.872367,-0.121207 z"
     id="path1078" />
  <path
     style="fill:#000000;stroke-width:0.039653"
     d="m 15.590037,15.919797 c -1.123222,-0.155156 -2.075303,-0.994407 -2.430056,-2.142075 -0.116878,-0.378115 -0.126326,-1.104451 -0.01958,-1.505107 0.261533,-0.981609 0.982238,-1.738813 1.987231,-2.087869 0.288256,-0.100118 0.36792,-0.11018 0.872367,-0.11018 0.504724,0 0.583953,0.01002 0.872367,0.110326 1.014238,0.352735 1.720434,1.094929 1.986463,2.087723 0.10832,0.404235 0.09971,1.12847 -0.01789,1.505107 -0.320884,1.027701 -1.114102,1.814703 -2.077336,2.061057 -0.366063,0.09362 -0.843637,0.126593 -1.17357,0.08102 z"
     id="path1117" />
  <path
     style="fill:#000000;stroke-width:0.039653"
     d="m 15.286245,17.92494 c -1.845522,-0.290104 -3.371565,-1.546269 -3.976355,-3.273143 -0.06492,-0.185378 -0.139976,-0.444114 -0.166784,-0.574969 -0.02681,-0.130855 -0.05759,-0.264684 -0.06839,-0.297398 -0.08161,-0.247 -0.07743,-0.982828 0.0091,-1.605948 0.0219,-0.157623 0.177705,-0.718427 0.256776,-0.92422 0.742815,-1.9332737 2.603357,-3.2201046 4.654658,-3.2193628 1.618007,5.852e-4 3.12947,0.7837368 4.072226,2.1099888 0.2738,0.385177 0.607545,1.082633 0.716953,1.498278 0.0488,0.185378 0.09857,0.345973 0.110618,0.356877 0.03426,0.03102 0.04604,0.244696 0.05357,0.9715 0.0077,0.746988 -0.04186,1.069768 -0.258918,1.685254 -0.786238,2.229406 -3.105604,3.634354 -5.403485,3.273143 z m 1.457846,-2.001863 c 1.332652,-0.340835 2.250197,-1.517518 2.259044,-2.897055 0.0028,-0.436171 -0.06507,-0.872366 -0.135726,-0.872366 -0.02392,0 -0.03097,0.03775 -0.01665,0.08922 0.120738,0.434112 0.120261,1.07217 -0.0011,1.504787 l -0.06455,0.230033 h -2.770487 c -2.482832,0 -2.770487,0.0064 -2.770487,0.06182 0,0.034 -0.01764,0.05092 -0.0392,0.03759 -0.02245,-0.01387 -0.02914,0.002 -0.01567,0.03708 0.01294,0.03372 0.03784,0.05247 0.05533,0.04166 0.01749,-0.01081 0.02246,0.01606 0.01105,0.05971 -0.01141,0.04365 -0.0038,0.07936 0.01691,0.07936 0.02072,0 0.03767,0.02435 0.03767,0.05412 0,0.111101 0.382606,0.624141 0.650278,0.871963 0.324045,0.300016 0.847814,0.587054 1.27591,0.699227 0.401685,0.105253 1.102128,0.106577 1.507701,0.0028 z m -3.568657,-2.054428 c -0.01079,-0.07088 -0.03545,-0.128872 -0.05478,-0.128872 -0.04594,0 -0.0444,0.04982 0.0056,0.181357 0.05203,0.136838 0.07437,0.112987 0.04917,-0.05249 z m -0.05028,-0.228005 c 0,-0.03271 -0.01784,-0.05948 -0.03965,-0.05948 -0.02181,0 -0.03965,0.02677 -0.03965,0.05948 0,0.03271 0.01784,0.05948 0.03965,0.05948 0.02181,0 0.03965,-0.02677 0.03965,-0.05948 z m -0.03965,-0.237918 c 0,-0.07633 -0.01784,-0.138785 -0.03965,-0.138785 -0.02181,0 -0.03965,0.06245 -0.03965,0.138785 0,0.07633 0.01784,0.138786 0.03965,0.138786 0.02181,0 0.03965,-0.06245 0.03965,-0.138786 z m -0.03965,-0.416357 c 0,-0.08724 -0.01784,-0.158612 -0.03965,-0.158612 -0.02181,0 -0.03965,0.07138 -0.03965,0.158612 0,0.08724 0.01784,0.158612 0.03965,0.158612 0.02181,0 0.03965,-0.07137 0.03965,-0.158612 z m 0.03965,-0.376704 c 0,-0.07633 -0.01784,-0.138785 -0.03965,-0.138785 -0.02181,0 -0.03965,0.06245 -0.03965,0.138785 0,0.07633 0.01784,0.138786 0.03965,0.138786 0.02181,0 0.03965,-0.06245 0.03965,-0.138786 z m 0.03965,-0.257744 c 0,-0.04362 -0.01784,-0.07931 -0.03965,-0.07931 -0.02181,0 -0.03965,0.03569 -0.03965,0.07931 0,0.04362 0.01784,0.07931 0.03965,0.07931 0.02181,0 0.03965,-0.03569 0.03965,-0.07931 z m 0.03965,-0.158612 c 0,-0.02181 -0.01784,-0.03965 -0.03965,-0.03965 -0.02181,0 -0.03965,0.01784 -0.03965,0.03965 0,0.02181 0.01784,0.03965 0.03965,0.03965 0.02181,0 0.03965,-0.01784 0.03965,-0.03965 z m 0.03626,-0.257745 c 0.0012,-0.02181 -0.01512,-0.01289 -0.03626,0.01983 -0.02114,0.03271 -0.03746,0.08625 -0.03626,0.118959 0.0023,0.06281 0.06839,-0.06367 0.07252,-0.138785 z m 5.653952,0.138785 c 0.01348,-0.02181 0.0056,-0.03965 -0.01749,-0.03965 -0.0231,0 -0.04199,0.01784 -0.04199,0.03965 0,0.02181 0.0079,0.03965 0.01749,0.03965 0.0096,0 0.02851,-0.01784 0.04199,-0.03965 z m -0.08134,-0.269779 c -0.216092,-0.520918 -0.824183,-1.19143 -1.31068,-1.445222 -0.37899,-0.197708 -0.40707,-0.141109 -0.03515,0.07084 0.559444,0.318813 0.960278,0.742876 1.222324,1.293158 0.130166,0.273344 0.230599,0.339395 0.123502,0.08122 z m -5.055695,-0.665628 c 0.231222,-0.280647 0.553901,-0.544107 0.904208,-0.738264 0.335768,-0.186099 0.266523,-0.225076 -0.07812,-0.04397 -0.321955,0.169183 -0.807375,0.607759 -1.02004,0.921605 -0.199895,0.295001 -0.328001,0.552057 -0.298726,0.599424 0.01311,0.02122 0.08457,-0.08199 0.158785,-0.229365 0.07422,-0.147372 0.224468,-0.376614 0.333891,-0.509428 z m 1.417101,-0.953525 c 0.06704,-0.01683 0.08329,-0.03475 0.0501,-0.05526 -0.05959,-0.03683 -0.275638,0.03264 -0.275638,0.08862 0,0.02201 0.02842,0.02911 0.06316,0.01578 0.03474,-0.01333 0.107811,-0.03544 0.16238,-0.04914 z m 1.955373,0.02912 c 0,-0.04885 -0.204186,-0.115469 -0.277222,-0.09045 -0.03825,0.0131 -0.01025,0.0379 0.07931,0.07022 0.17273,0.06235 0.197916,0.06492 0.197916,0.02023 z m -1.70508,-0.09877 c 0,-0.0086 -0.02677,-0.02585 -0.05948,-0.03841 -0.03271,-0.01255 -0.05948,-0.0055 -0.05948,0.01558 0,0.02112 0.02677,0.03841 0.05948,0.03841 0.03271,0 0.05948,-0.007 0.05948,-0.01558 z m 1.348203,-0.02282 c 0,-0.02113 -0.02677,-0.02814 -0.05948,-0.01558 -0.03271,0.01255 -0.05948,0.02984 -0.05948,0.03841 0,0.0086 0.02677,0.01558 0.05948,0.01558 0.03271,0 0.05948,-0.01728 0.05948,-0.03841 z m -1.110285,-0.01645 c 0,-0.0084 -0.03569,-0.02453 -0.07931,-0.03594 -0.04362,-0.01141 -0.07931,-0.0046 -0.07931,0.0152 0,0.01977 0.03569,0.03594 0.07931,0.03594 0.04362,0 0.07931,-0.0068 0.07931,-0.0152 z m 0.951673,-0.01895 c 0,-0.01878 -0.04461,-0.02563 -0.09913,-0.0152 -0.05452,0.01042 -0.09913,0.02579 -0.09913,0.03416 0,0.0084 0.04461,0.0152 0.09913,0.0152 0.05452,0 0.09913,-0.01537 0.09913,-0.03415 z m -0.317224,-0.04515 c 0,-0.022369 -0.11235,-0.039654 -0.257745,-0.039654 -0.145395,0 -0.257745,0.017285 -0.257745,0.039654 0,0.02237 0.11235,0.03965 0.257745,0.03965 0.145395,0 0.257745,-0.01728 0.257745,-0.03965 z"
     id="path1156" />
  <path
     style="fill:#000000;stroke-width:0.039653"
     d="m 15.256182,17.920914 c -1.290831,-0.200921 -2.49159,-0.929426 -3.266572,-1.98184 -1.081549,-1.468729 -1.267265,-3.440541 -0.477308,-5.067749 0.368367,-0.758787 0.850548,-1.3517057 1.491881,-1.8345028 2.202973,-1.6584052 5.300774,-1.2251556 6.967541,0.9744608 1.315005,1.735398 1.330904,4.172949 0.03867,5.927791 -1.0939,1.485501 -2.955999,2.261736 -4.754208,1.98184 z m 0.367114,-1.9384 c 0,-0.0096 -0.01784,-0.02852 -0.03965,-0.04199 -0.02181,-0.01348 -0.03965,-0.0056 -0.03965,0.01749 0,0.0231 0.01784,0.04199 0.03965,0.04199 0.02181,0 0.03965,-0.0079 0.03965,-0.01749 z m 0.713755,0.0023 c 0,-0.0084 -0.03569,-0.02453 -0.07931,-0.03594 -0.04362,-0.01141 -0.07931,-0.0046 -0.07931,0.0152 0,0.01977 0.03569,0.03594 0.07931,0.03594 0.04362,0 0.07931,-0.0068 0.07931,-0.0152 z m 0.418691,-0.08687 c 0.07429,-0.06025 0.07352,-0.06165 -0.02216,-0.04019 -0.05452,0.01222 -0.130359,0.02247 -0.168525,0.02277 -0.03817,3.17e-4 -0.06939,0.01839 -0.06939,0.04019 0,0.06185 0.17458,0.04657 0.260079,-0.02277 z m 0.574917,-0.197177 c 0.143015,-0.07163 0.28349,-0.158513 0.312166,-0.193066 0.07457,-0.08985 0.03267,-0.07839 -0.187,0.05113 -0.106296,0.06267 -0.259883,0.138043 -0.341304,0.167485 -0.176304,0.06375 -0.305061,0.185949 -0.142711,0.135439 0.05435,-0.01691 0.215834,-0.08935 0.358849,-0.160988 z m -2.242679,0.100988 c -0.10901,-0.04684 -0.171617,-0.04684 -0.09913,0 0.03271,0.02114 0.08624,0.03746 0.118959,0.03626 0.03922,-0.0014 0.03247,-0.01379 -0.01983,-0.03626 z m -0.257745,-0.09489 c 0,-0.0086 -0.02769,-0.02621 -0.06154,-0.0392 -0.03529,-0.01354 -0.0512,-0.0069 -0.03731,0.01558 0.02329,0.03768 0.09885,0.05573 0.09885,0.02361 z m -0.491876,-0.268114 c 0.01753,-0.02836 0.01088,-0.03502 -0.01749,-0.01749 -0.02518,0.01556 -0.04578,0.0064 -0.04578,-0.02031 0,-0.02673 -0.01071,-0.03789 -0.0238,-0.0248 -0.02268,0.02268 0.01181,0.10838 0.04362,0.10838 0.0083,0 0.02788,-0.0206 0.04344,-0.04578 z m 3.855925,-0.452646 c 0.03627,-0.04514 -0.03129,0.01732 -0.150124,0.138786 -0.118835,0.12147 -0.231686,0.215951 -0.250779,0.209958 -0.01909,-0.006 -0.0222,0.0094 -0.0069,0.03412 0.02534,0.041 0.195895,-0.119118 0.4078,-0.38286 z m -4.117456,0.246827 c 0,-0.0075 -0.03569,-0.04598 -0.07931,-0.08545 -0.09345,-0.08457 -0.107636,-0.05382 -0.01699,0.03682 0.05953,0.05953 0.0963,0.0781 0.0963,0.04863 z M 13.685105,14.80703 c -0.08988,-0.112885 -0.163398,-0.189532 -0.163371,-0.170326 2.6e-5,0.01921 0.04017,0.08233 0.08922,0.140273 0.04904,0.05795 0.115011,0.142142 0.146593,0.187105 0.03158,0.04496 0.06497,0.0742 0.0742,0.06497 0.0092,-0.0092 -0.05676,-0.109139 -0.146641,-0.222025 z m 4.679309,-0.02636 c 0.04932,-0.06289 0.04792,-0.06429 -0.01497,-0.01497 -0.03817,0.02993 -0.06939,0.06116 -0.06939,0.06939 0,0.03264 0.03256,0.01163 0.08436,-0.05442 z m 0.193207,-0.152967 c 0,-0.03282 -0.077,-0.05138 -0.09465,-0.02281 -0.01145,0.01853 0.0052,0.03369 0.03691,0.03369 0.03175,0 0.05774,-0.0049 0.05774,-0.01088 z m 0.120248,-0.275389 c 0.04788,-0.07748 0.08028,-0.147659 0.07198,-0.155955 -0.0083,-0.0083 -0.05547,0.0551 -0.10484,0.140872 -0.111856,0.194355 -0.08543,0.206484 0.03286,0.01508 z m 0.195762,-0.434097 c 0,-0.02181 -0.0173,-0.01289 -0.03844,0.01983 -0.02114,0.03271 -0.03844,0.07732 -0.03844,0.09913 0,0.02181 0.0173,0.01289 0.03844,-0.01983 0.02114,-0.03271 0.03844,-0.07732 0.03844,-0.09913 z m -5.699118,-0.07931 c -0.01042,-0.05452 -0.03471,-0.09913 -0.05398,-0.09913 -0.04092,0 -0.04475,0.04748 -0.01096,0.135542 0.03818,0.0995 0.08582,0.0728 0.06494,-0.03641 z m -0.125564,-0.548078 c -0.03057,-0.03057 -0.04275,-0.0085 -0.04275,0.07753 0,0.156533 0.05564,0.212557 0.07249,0.07299 0.0072,-0.05927 -0.0062,-0.127006 -0.02974,-0.15052 z m 5.892637,0.124286 c -0.01266,-0.03163 -0.02206,-0.02224 -0.02396,0.02396 -0.0017,0.0418 0.0076,0.06522 0.02083,0.05204 0.01318,-0.01318 0.01459,-0.04738 0.0031,-0.076 z m 0.04528,-0.756242 c -0.01562,-0.195534 -0.0383,-0.365408 -0.05039,-0.377498 -0.053,-0.053 -0.06028,0.03783 -0.02345,0.292618 0.02175,0.150473 0.04168,0.353885 0.04428,0.452026 0.0036,0.133788 0.0114,0.154658 0.03135,0.0834 0.01463,-0.05227 0.01383,-0.255017 -0.0018,-0.45055 z m -5.99299,0.2581 c -0.01,-0.03817 -0.01813,-0.0069 -0.01813,0.06939 0,0.07633 0.0082,0.107559 0.01813,0.06939 0.01,-0.03817 0.01,-0.100619 0,-0.138786 z m 0.07564,-0.267721 c -0.01597,-0.149815 -0.06332,-0.169534 -0.06332,-0.02637 0,0.06906 0.01663,0.125568 0.03695,0.125568 0.02032,0 0.03219,-0.04464 0.02637,-0.0992 z m 0.03412,-0.254941 c 0.01255,-0.0203 0.0047,-0.04812 -0.01749,-0.06182 -0.02217,-0.0137 -0.0403,0.0029 -0.0403,0.03691 0,0.06965 0.02379,0.07991 0.05779,0.02491 z m 5.77121,-0.319965 c 0,-0.02181 -0.01784,-0.03965 -0.03965,-0.03965 -0.02181,0 -0.03965,0.01784 -0.03965,0.03965 0,0.02181 0.01784,0.03965 0.03965,0.03965 0.02181,0 0.03965,-0.01784 0.03965,-0.03965 z m -5.614149,-0.274207 c -0.02462,-0.02462 -0.04337,0.0052 -0.07279,0.115595 l -0.02641,0.09913 0.05789,-0.09907 c 0.03184,-0.05449 0.05043,-0.106535 0.04131,-0.115655 z m 5.538398,0.06547 c -0.03532,-0.0929 -0.122514,-0.184485 -0.122514,-0.128681 0,0.048 0.125255,0.265037 0.142819,0.247473 0.0099,-0.0099 7.69e-4,-0.06336 -0.02031,-0.118792 z m -5.382516,-0.285653 c 0.01229,-0.03201 0.0025,-0.07046 -0.02171,-0.08543 -0.02667,-0.01648 -0.03289,-0.0092 -0.01576,0.01856 0.01556,0.02518 0.0083,0.04578 -0.01604,0.04578 -0.02438,0 -0.03331,0.01784 -0.01983,0.03965 0.0331,0.05356 0.04701,0.05004 0.07333,-0.01856 z m 5.203462,-0.04869 c -0.01014,-0.0691 -0.102072,-0.125796 -0.102072,-0.06295 0,0.0302 0.07953,0.130194 0.103554,0.130194 0.0046,0 0.0039,-0.03026 -0.0015,-0.06724 z m -0.181378,-0.249981 c -0.04659,-0.06543 -0.09363,-0.118959 -0.104533,-0.118959 -0.01091,0 0.01829,0.05353 0.06488,0.118959 0.04659,0.06543 0.09363,0.118959 0.104533,0.118959 0.0109,0 -0.01829,-0.05353 -0.06488,-0.118959 z m -4.857497,0 c 0.01348,-0.02181 0.0056,-0.03965 -0.01749,-0.03965 -0.0231,0 -0.04199,0.01784 -0.04199,0.03965 0,0.02181 0.0079,0.03965 0.01749,0.03965 0.0096,0 0.02851,-0.01784 0.04199,-0.03965 z m 4.4584,-0.48932 c -0.308541,-0.289517 -0.493863,-0.406313 -0.536147,-0.337897 -0.01709,0.02765 -0.01155,0.03582 0.01371,0.02021 0.02332,-0.01441 0.04838,-0.01271 0.05569,0.0038 0.0073,0.01649 0.111442,0.104595 0.231392,0.195782 0.119951,0.09119 0.270322,0.22037 0.33416,0.287071 0.06384,0.0667 0.126291,0.110933 0.138786,0.09829 0.01249,-0.01264 -0.09442,-0.1329 -0.237594,-0.267245 z M 14.11262,10.66941 c -0.01043,-0.01043 -0.04259,0.02037 -0.07146,0.06845 -0.05016,0.08352 -0.04931,0.08437 0.01897,0.01897 0.0393,-0.03765 0.06293,-0.07698 0.0525,-0.08742 z m 3.153383,-0.398426 c -0.11591,-0.08769 -0.169318,-0.06902 -0.06088,0.02129 0.05216,0.04344 0.104389,0.06942 0.116064,0.05775 0.01168,-0.01168 -0.01316,-0.04724 -0.05518,-0.07904 z m -2.160386,-0.07606 c 0.07513,-0.02714 0.119737,-0.05885 0.09913,-0.07047 -0.05352,-0.03017 -0.295206,0.04132 -0.295206,0.08733 0,0.04749 0.02357,0.04546 0.196074,-0.01686 z m 1.785429,-0.06513 c -0.07481,-0.04731 -0.117811,-0.04781 -0.117811,-0.0014 0,0.03767 0.123897,0.07932 0.157464,0.05293 0.01027,-0.0081 -0.0076,-0.03128 -0.03965,-0.05157 z m -1.505667,-0.0381 c 0,-0.02181 -0.02677,-0.03965 -0.05948,-0.03965 -0.03271,0 -0.05948,0.01784 -0.05948,0.03965 0,0.02181 0.02677,0.03965 0.05948,0.03965 0.03271,0 0.05948,-0.01784 0.05948,-0.03965 z m 1.348203,0 c 0,-0.02181 -0.02677,-0.03965 -0.05948,-0.03965 -0.03271,0 -0.05948,0.01784 -0.05948,0.03965 0,0.02181 0.02677,0.03965 0.05948,0.03965 0.03271,0 0.05948,-0.01784 0.05948,-0.03965 z m -1.130111,-0.03965 c -0.01348,-0.02181 -0.05022,-0.03965 -0.08165,-0.03965 -0.03143,0 -0.05714,0.01784 -0.05714,0.03965 0,0.02181 0.03674,0.03965 0.08165,0.03965 0.04491,0 0.07062,-0.01784 0.05714,-0.03965 z m 0.951673,0 c -0.01348,-0.02181 -0.04917,-0.03965 -0.07931,-0.03965 -0.03014,0 -0.06583,0.01784 -0.07931,0.03965 -0.01395,0.02258 0.0202,0.03965 0.07931,0.03965 0.05911,0 0.09326,-0.01707 0.07931,-0.03965 z m -0.317225,-0.03965 C 16.224439,9.9905824 16.117376,9.9727385 16,9.9727385 c -0.117376,0 -0.224439,0.017844 -0.237918,0.039654 -0.01539,0.02491 0.07306,0.03965 0.237918,0.03965 0.164853,0 0.253313,-0.01474 0.237918,-0.03965 z"
     id="path1195" />
  <path
     style="fill:#000000;stroke-width:0.039653"
     d="m 15.251712,17.920269 c -1.200024,-0.186614 -2.302764,-0.812767 -3.076105,-1.746658 -0.492416,-0.594645 -0.806114,-1.21737 -1.021707,-2.028203 -0.09059,-0.3407 -0.103046,-0.466931 -0.106556,-1.079733 -0.0043,-0.755519 0.03207,-1.020856 0.219368,-1.599099 0.324307,-1.001247 1.060991,-1.9862179 1.918139,-2.5646159 1.723959,-1.1633149 3.875467,-1.1679088 5.621876,-0.012004 0.37794,0.2501496 1.032611,0.905534 1.29577,1.2971819 1.190868,1.772321 1.154245,4.059407 -0.09211,5.751936 -1.095104,1.487135 -2.95537,2.261626 -4.758678,1.981195 z m 0.371584,-1.959922 c 0,-0.02181 -0.01784,-0.03965 -0.03965,-0.03965 -0.02181,0 -0.03965,0.01784 -0.03965,0.03965 0,0.02181 0.01784,0.03965 0.03965,0.03965 0.02181,0 0.03965,-0.01784 0.03965,-0.03965 z m 0.674102,0.02407 c 0,-0.0086 -0.02677,-0.02585 -0.05948,-0.03841 -0.03271,-0.01255 -0.05948,-0.0055 -0.05948,0.01558 0,0.02112 0.02676,0.03841 0.05948,0.03841 0.03271,0 0.05948,-0.007 0.05948,-0.01558 z m -1.229244,-0.182681 c -0.07766,-0.05019 -0.130149,-0.05019 -0.09913,0 0.01348,0.02181 0.05468,0.03938 0.09156,0.03905 0.05778,-5.24e-4 0.05883,-0.0059 0.0076,-0.03905 z m -0.248658,-0.103263 c -0.01318,-0.01318 -0.04738,-0.01459 -0.076,-0.0031 -0.03163,0.01266 -0.02224,0.02205 0.02396,0.02396 0.0418,0.0017 0.06522,-0.0077 0.05204,-0.02083 z M 14.354399,15.4491 c 0,-0.01948 -0.02677,-0.04568 -0.05948,-0.05823 -0.06044,-0.02319 -0.08121,0.01905 -0.03304,0.06721 0.0379,0.0379 0.09252,0.0326 0.09252,-0.009 z m 3.520042,-0.115794 c 0.0097,-0.02898 -0.0085,-0.03784 -0.04709,-0.02302 -0.03454,0.01325 -0.06279,0.04152 -0.06279,0.06281 0,0.05212 0.09012,0.01948 0.109881,-0.03979 z m -3.857313,-0.166263 c -0.0396,-0.04375 -0.08059,-0.07095 -0.0911,-0.06044 -0.02664,0.02665 0.07226,0.139987 0.12215,0.139987 0.02252,0 0.0085,-0.0358 -0.03105,-0.07955 z M 13.685105,14.80703 c -0.08988,-0.112885 -0.16342,-0.182448 -0.16342,-0.154584 0,0.06254 0.278713,0.407958 0.306641,0.380029 0.01111,-0.01111 -0.05334,-0.112559 -0.143221,-0.225445 z m 5.164427,-0.809508 c 0.01255,-0.03271 0.0055,-0.05948 -0.01558,-0.05948 -0.02112,0 -0.03841,0.02677 -0.03841,0.05948 0,0.03271 0.007,0.05948 0.01558,0.05948 0.0086,0 0.02585,-0.02677 0.03841,-0.05948 z m -5.673396,-0.139404 c -0.02233,-0.0854 -0.09063,-0.148902 -0.09063,-0.08427 0,0.06763 0.04695,0.164195 0.07984,0.164195 0.01743,0 0.02229,-0.03597 0.0108,-0.07992 z m -0.127187,-0.567286 c -0.03057,-0.03057 -0.04275,-0.0085 -0.04275,0.07753 0,0.156533 0.05564,0.212557 0.07249,0.07299 0.0072,-0.05927 -0.0062,-0.127006 -0.02974,-0.15052 z m 5.892637,0.124286 c -0.01266,-0.03163 -0.02206,-0.02224 -0.02396,0.02396 -0.0017,0.0418 0.0076,0.06522 0.02083,0.05204 0.01318,-0.01318 0.01459,-0.04738 0.0031,-0.076 z m 0.01161,-0.934962 c -0.03379,-0.05301 -0.03878,-0.0188 -0.02179,0.149336 0.01213,0.11995 0.02583,0.298389 0.03046,0.39653 0.0046,0.09814 0.01443,0.03094 0.02179,-0.149335 0.008,-0.194991 -0.0044,-0.355628 -0.03046,-0.396531 z m -5.960397,0.456647 c -0.011,-0.02726 -0.02,-0.005 -0.02,0.04957 0,0.05452 0.009,0.07683 0.02,0.04957 0.011,-0.02726 0.011,-0.07187 0,-0.09913 z m 0.0927,-0.307311 c 0,-0.04104 -0.01784,-0.08565 -0.03965,-0.09913 -0.0232,-0.01434 -0.03965,0.0268 -0.03965,0.09913 0,0.07233 0.01646,0.113469 0.03965,0.09913 0.02181,-0.01348 0.03965,-0.05809 0.03965,-0.09913 z m 0.03965,-0.279912 c 0,-0.02052 -0.01784,-0.03731 -0.03965,-0.03731 -0.02181,0 -0.03965,0.02782 -0.03965,0.06182 0,0.034 0.01784,0.05079 0.03965,0.03731 0.02181,-0.01348 0.03965,-0.0413 0.03965,-0.06182 z m 5.775952,-0.08688 c -0.011,-0.02726 -0.02,-0.005 -0.02,0.04957 0,0.05452 0.009,0.07683 0.02,0.04957 0.011,-0.02726 0.011,-0.07187 0,-0.09913 z m -0.02626,-0.188352 c 0,-0.02181 -0.01784,-0.03965 -0.03965,-0.03965 -0.02181,0 -0.03965,0.01784 -0.03965,0.03965 0,0.02181 0.01784,0.03965 0.03965,0.03965 0.02181,0 0.03965,-0.01784 0.03965,-0.03965 z m -5.592483,-0.292017 c -0.002,-0.06486 -0.114517,0.141586 -0.115905,0.212711 -6.38e-4,0.03271 0.0255,0.0084 0.05808,-0.0541 0.03258,-0.06247 0.0586,-0.133843 0.05783,-0.158612 z m 5.487207,0.07222 c -0.01291,-0.03365 -0.03199,-0.05269 -0.04238,-0.04229 -0.01039,0.0104 -0.0071,0.03793 0.0072,0.06119 0.0391,0.06327 0.06195,0.05097 0.03514,-0.0189 z M 13.41831,11.575443 c 0.03722,-0.097 0.02915,-0.109819 -0.03541,-0.05624 -0.06592,0.05471 -0.07892,0.118959 -0.02407,0.118959 0.01947,0 0.04624,-0.02823 0.05948,-0.06272 z m 5.18863,-0.04523 c -0.0274,-0.0098 -0.03973,-0.0341 -0.0274,-0.05405 0.01233,-0.01995 0.0035,-0.03627 -0.01958,-0.03627 -0.0231,0 -0.04199,0.01427 -0.04199,0.03172 0,0.04934 0.09118,0.128488 0.116315,0.100974 0.01236,-0.01353 4e-5,-0.0326 -0.02734,-0.04238 z M 18.51797,11.36059 c 0,-0.02181 -0.0189,-0.03965 -0.04199,-0.03965 -0.0231,0 -0.03097,0.01784 -0.01749,0.03965 0.01348,0.02181 0.03238,0.03965 0.04199,0.03965 0.0096,0 0.01749,-0.01784 0.01749,-0.03965 z m -4.916977,-0.07931 c 0,-0.02181 -0.01784,-0.03965 -0.03965,-0.03965 -0.02181,0 -0.03965,0.01784 -0.03965,0.03965 0,0.02181 0.01784,0.03965 0.03965,0.03965 0.02181,0 0.03965,-0.01784 0.03965,-0.03965 z m 4.837671,-0.01497 c 0,-0.0082 -0.03123,-0.03946 -0.06939,-0.06939 -0.06289,-0.04932 -0.06429,-0.04792 -0.01497,0.01497 0.0518,0.06605 0.08437,0.08706 0.08437,0.05442 z m -0.324018,-0.407135 c -0.136276,-0.136276 -0.189171,-0.167991 -0.212622,-0.127481 -0.01717,0.02966 -0.0182,0.04228 -0.0023,0.02805 0.01591,-0.01423 0.101678,0.05305 0.190594,0.14951 0.08892,0.09646 0.171578,0.165473 0.183694,0.153357 0.01212,-0.01212 -0.0596,-0.103662 -0.159377,-0.203434 z m -3.998163,-0.1824 c 0,-0.02212 -0.0263,-0.01783 -0.05948,0.0097 -0.03271,0.02715 -0.05948,0.06721 -0.05948,0.08902 0,0.02212 0.0263,0.01783 0.05948,-0.0097 0.03271,-0.02715 0.05948,-0.06721 0.05948,-0.08902 z m 3.648079,-0.100699 c 0,-0.03489 -0.211843,-0.167948 -0.263863,-0.165736 -0.04028,0.0017 0.191469,0.19636 0.234123,0.196642 0.01636,1.07e-4 0.02974,-0.0138 0.02974,-0.03091 z m -0.49283,-0.30878 c -0.04199,-0.0307 -0.08655,-0.04563 -0.09901,-0.03317 -0.01246,0.01246 0.0117,0.04778 0.05369,0.07849 0.04199,0.03071 0.08655,0.04563 0.09901,0.03317 0.01246,-0.01246 -0.0117,-0.04778 -0.05369,-0.07849 z m -2.209493,-0.06053 c 0.164806,-0.05745 0.161588,-0.120073 -0.0037,-0.07266 -0.07073,0.02029 -0.133188,0.03688 -0.138785,0.03688 -0.0056,0 -0.01017,0.01784 -0.01017,0.03965 0,0.04919 4.91e-4,0.04918 0.152695,-0.0039 z m 1.828808,-0.07698 c -0.09403,-0.05947 -0.144829,-0.04102 -0.06123,0.02223 0.04203,0.03179 0.08612,0.0481 0.09798,0.03623 0.01187,-0.01187 -0.0047,-0.03817 -0.03676,-0.05846 z m -1.525494,-0.0381 c -0.01348,-0.02181 -0.0413,-0.03965 -0.06182,-0.03965 -0.02052,0 -0.03731,0.01784 -0.03731,0.03965 0,0.02181 0.02782,0.03965 0.06182,0.03965 0.034,0 0.05079,-0.01784 0.03731,-0.03965 z m 1.36803,0 c 0,-0.02181 -0.01679,-0.03965 -0.03731,-0.03965 -0.02052,0 -0.04834,0.01784 -0.06182,0.03965 -0.01348,0.02181 0.0033,0.03965 0.03731,0.03965 0.034,0 0.06182,-0.01784 0.06182,-0.03965 z m -1.130111,-0.03965 c -0.01348,-0.02181 -0.05022,-0.03965 -0.08165,-0.03965 -0.03143,0 -0.05714,0.01784 -0.05714,0.03965 0,0.02181 0.03674,0.03965 0.08165,0.03965 0.04491,0 0.07062,-0.01784 0.05714,-0.03965 z m 0.951673,0 c -0.01348,-0.02181 -0.05022,-0.03965 -0.08165,-0.03965 -0.03143,0 -0.05714,0.01784 -0.05714,0.03965 0,0.02181 0.03674,0.03965 0.08165,0.03965 0.04491,0 0.07062,-0.01784 0.05714,-0.03965 z M 16.23792,10.012386 C 16.224439,9.9905824 16.117376,9.9727385 16,9.9727385 c -0.117376,0 -0.224439,0.017844 -0.237918,0.039654 -0.01539,0.02491 0.07306,0.03965 0.237918,0.03965 0.164853,0 0.253313,-0.01474 0.237918,-0.03965 z"
     id="path1234" />
  <path
     style="fill:#000000;stroke-width:0.039653"
     d="m 14.779158,27.915453 c -1.481226,-0.160931 -2.905366,-0.589089 -4.233974,-1.272915 l -0.512966,-0.26402 v -0.880562 c 0,-0.748408 0.01187,-0.927634 0.07907,-1.194215 0.262279,-1.040349 1.024026,-1.839626 2.06219,-2.163791 l 0.297398,-0.09286 H 16 19.52912 l 0.297398,0.09286 c 1.046752,0.326847 1.792742,1.109918 2.061327,2.163791 0.06834,0.268131 0.07994,0.4415 0.07994,1.194527 v 0.880873 l -0.545229,0.278627 c -1.332394,0.680887 -2.750951,1.103085 -4.221921,1.256547 -0.688785,0.07186 -1.76589,0.07237 -2.421474,0.0011 z"
     id="path1273" />
  <ellipse
     style="fill:#000000;stroke-width:1.02831"
     id="path2030"
     cx="16.000256"
     cy="13.136791"
     rx="3.286963"
     ry="3.1855469" />
  <ellipse
     style="fill:#000000;stroke-width:1.61004"
     id="path2030-3"
     cx="16.236784"
     cy="25.010801"
     rx="7.2244253"
     ry="3.5530672" />
</svg>
